<svg xmlns="http://www.w3.org/2000/svg" width="200" height="200" viewBox="0 0 200 200">
	<g>
		<!-- Muffin bottom (white) -->
		<rect x="60" y="120" width="80" height="60" fill="#ffffff" stroke="#cccccc" stroke-width="3" rx="10" />

		<!-- Fluffier muffin top (seafoam green icing) -->
		<path d="M45,120 C35,80 165,80 155,120 C165,125 145,140 125,130 C115,140 85,140 75,130 C55,140 35,125 45,120 Z" fill="#9fe2bf" stroke="#80c3a1" stroke-width="3"/>

		<!-- Eyes -->
		<circle cx="80" cy="105" r="7" fill="#000000"/>
		<circle cx="120" cy="105" r="7" fill="#000000"/>

		<!-- Smile (rounded, cartoon-like) -->
		<path d="M80,125 Q100,145 120,125" stroke="#000000" stroke-width="3" fill="none"/>

		<!-- Muffin liner details (without overlap) -->
		<line x1="70" y1="120" x2="70" y2="180" stroke="#cccccc" stroke-width="3" />
		<line x1="90" y1="120" x2="90" y2="180" stroke="#cccccc" stroke-width="3" />
		<line x1="110" y1="120" x2="110" y2="180" stroke="#cccccc" stroke-width="3" />
		<line x1="130" y1="120" x2="130" y2="180" stroke="#cccccc" stroke-width="3" />
	</g>
</svg>
